<svg width="60" height="48" viewBox="0 0 60 48" fill="none" xmlns="http://www.w3.org/2000/svg">
<g filter="url(#filter0_d)">
<path d="M36.3994 15.0654L31.5567 10.7538C29.6241 9.02831 29.4563 6.06285 31.1818 4.13026C32.9073 2.19768 35.8727 2.02984 37.8053 3.75534L51.8648 16.2526C53.7973 17.9743 53.9683 20.9367 52.2465 22.8693C52.1267 23.0039 51.9992 23.1313 51.8648 23.2511L37.8053 35.7483C36.9464 36.5166 35.8334 36.9396 34.681 36.9356C32.0927 36.9394 29.9914 34.8442 29.9877 32.256C29.9857 30.9168 30.5568 29.6408 31.5567 28.7499L36.3994 24.4383L11.2486 24.4383C8.66034 24.4383 6.56216 22.3401 6.56216 19.7518C6.56216 17.1635 8.66034 15.0654 11.2486 15.0654L36.3994 15.0654Z" fill="#FFC107"/>
<path d="M34.681 38.4978C31.23 38.5019 28.4291 35.7076 28.4251 32.2565C28.4229 30.4704 29.1852 28.7689 30.5194 27.5814L32.294 26.0005L11.2486 26.0005C7.79763 26.0005 5 23.2029 5 19.7519C5 16.3009 7.79763 13.5032 11.2486 13.5032L32.294 13.5032L30.5163 11.9223C27.9383 9.62314 27.7125 5.66942 30.0117 3.09147C32.3109 0.513516 36.2646 0.287687 38.8426 2.58689L52.902 15.0842C55.4816 17.3765 55.7145 21.3261 53.4221 23.9058C53.2591 24.0892 53.0855 24.2629 52.902 24.4259L38.8426 36.9231C37.6969 37.9429 36.2149 38.5037 34.681 38.4978ZM11.2486 16.6276C9.52313 16.6276 8.12432 18.0264 8.12432 19.7519C8.12432 21.4774 9.52313 22.8762 11.2486 22.8762L36.3994 22.8762C37.2622 22.8759 37.9617 23.5752 37.962 24.4379C37.9621 24.8847 37.771 25.3102 37.4367 25.6068L32.5971 29.9153C31.3084 31.0628 31.194 33.0376 32.3415 34.3263C32.3444 34.3296 32.3473 34.3329 32.3503 34.3362C33.5288 35.5638 35.4554 35.6729 36.7649 34.5861L50.8244 22.0889C52.1107 20.9259 52.2108 18.9403 51.0478 17.6539C50.9772 17.5757 50.9026 17.5011 50.8244 17.4304L36.7649 4.93315C35.4655 3.79776 33.4918 3.93074 32.3565 5.23016C31.2416 6.50605 31.347 8.43815 32.594 9.58526L37.4367 13.8968C38.082 14.4694 38.141 15.4567 37.5684 16.1021C37.2718 16.4363 36.8463 16.6276 36.3994 16.6275L11.2486 16.6275V16.6276Z" fill="black"/>
</g>
<defs>
<filter id="filter0_d" x="0" y="0" width="60" height="47.4978" filterUnits="userSpaceOnUse" color-interpolation-filters="sRGB">
<feFlood flood-opacity="0" result="BackgroundImageFix"/>
<feColorMatrix in="SourceAlpha" type="matrix" values="0 0 0 0 0 0 0 0 0 0 0 0 0 0 0 0 0 0 127 0" result="hardAlpha"/>
<feOffset dy="4"/>
<feGaussianBlur stdDeviation="2.5"/>
<feComposite in2="hardAlpha" operator="out"/>
<feColorMatrix type="matrix" values="0 0 0 0 0 0 0 0 0 0 0 0 0 0 0 0 0 0 0.25 0"/>
<feBlend mode="normal" in2="BackgroundImageFix" result="effect1_dropShadow"/>
<feBlend mode="normal" in="SourceGraphic" in2="effect1_dropShadow" result="shape"/>
</filter>
</defs>
</svg>
