<svg width="60" height="48" viewBox="0 0 60 48" fill="none" xmlns="http://www.w3.org/2000/svg">
<g filter="url(#filter0_d)">
<path d="M23.6006 24.4324L28.4433 28.744C30.3759 30.4695 30.5437 33.435 28.8182 35.3675C27.0927 37.3001 24.1272 37.468 22.1946 35.7425L8.13522 23.2452C6.20263 21.5235 6.03167 18.5611 7.75347 16.6285C7.87326 16.4939 8.00078 16.3665 8.13522 16.2467L22.1946 3.74946C23.0535 2.98117 24.1666 2.55822 25.319 2.56222C27.9073 2.55842 30.0086 4.65356 30.0123 7.24176C30.0142 8.58102 29.4432 9.85701 28.4433 10.7479L23.6006 15.0595L48.7513 15.0595C51.3396 15.0595 53.4378 17.1577 53.4378 19.746C53.4378 22.3343 51.3396 24.4324 48.7513 24.4324L23.6006 24.4324Z" fill="#FFC107"/>
<path d="M25.319 1.00002C28.77 0.995922 31.5709 3.79023 31.5749 7.24133C31.5771 9.02737 30.8147 10.7289 29.4806 11.9164L27.7059 13.4973L48.7513 13.4973C52.2023 13.4973 55 16.2949 55 19.7459C55 23.1969 52.2023 25.9946 48.7513 25.9946L27.7059 25.9946L29.4837 27.5755C32.0616 29.8747 32.2875 33.8284 29.9883 36.4063C27.689 38.9843 23.7353 39.2101 21.1574 36.9109L7.09794 24.4136C4.51833 22.1213 4.28547 18.1717 6.57784 15.592C6.74089 15.4086 6.91449 15.2349 7.09795 15.0719L21.1574 2.57468C22.3031 1.55488 23.7851 0.994067 25.319 1.00002ZM48.7513 22.8702C50.4768 22.8702 51.8757 21.4714 51.8757 19.7459C51.8757 18.0204 50.4768 16.6216 48.7513 16.6216L23.6006 16.6216C22.7378 16.6219 22.0382 15.9226 22.0379 15.0599C22.0378 14.6131 22.229 14.1876 22.5633 13.891L27.4029 9.58252C28.6916 8.43502 28.806 6.46016 27.6585 5.17147C27.6556 5.16815 27.6526 5.16493 27.6497 5.16161C26.4712 3.93405 24.5446 3.82489 23.235 4.91167L9.17562 17.4089C7.88928 18.5719 7.7892 20.5575 8.95213 21.8439C9.02282 21.9221 9.09741 21.9967 9.17562 22.0674L23.235 34.5646C24.5345 35.7 26.5082 35.5671 27.6435 34.2676C28.7583 32.9917 28.653 31.0597 27.406 29.9125L22.5633 25.601C21.9179 25.0284 21.859 24.0411 22.4316 23.3957C22.7282 23.0615 23.1537 22.8702 23.6006 22.8703L48.7513 22.8703L48.7513 22.8702Z" fill="black"/>
</g>
<defs>
<filter id="filter0_d" x="0" y="0" width="60" height="47.4978" filterUnits="userSpaceOnUse" color-interpolation-filters="sRGB">
<feFlood flood-opacity="0" result="BackgroundImageFix"/>
<feColorMatrix in="SourceAlpha" type="matrix" values="0 0 0 0 0 0 0 0 0 0 0 0 0 0 0 0 0 0 127 0" result="hardAlpha"/>
<feOffset dy="4"/>
<feGaussianBlur stdDeviation="2.5"/>
<feComposite in2="hardAlpha" operator="out"/>
<feColorMatrix type="matrix" values="0 0 0 0 0 0 0 0 0 0 0 0 0 0 0 0 0 0 0.25 0"/>
<feBlend mode="normal" in2="BackgroundImageFix" result="effect1_dropShadow"/>
<feBlend mode="normal" in="SourceGraphic" in2="effect1_dropShadow" result="shape"/>
</filter>
</defs>
</svg>
