<svg width="50" height="50" viewBox="0 0 55 55" fill="none" xmlns="http://www.w3.org/2000/svg">
<path d="M27.5 0L41.2213 6.889L55 13.722L41.2213 20.611L27.5 27.5L13.7787 20.611L0 13.722L13.7787 6.889L27.5 0Z" fill="#D9AC80"/>
<path d="M44.6659 25.1476V18.9307L37.7766 22.3472V28.5641L41.5657 24.0275L44.6659 25.1476Z" fill="#D7BAA4"/>
<path d="M27.5 27.5V55L55 41.278V13.722L44.666 18.9308L44.4363 19.0428V25.0917L41.5658 24.0275L37.7766 28.5642V22.3473L27.5 27.5Z" fill="#A67E4F"/>
<path d="M27.5 55V27.5L13.7787 20.611L0 13.722V41.278L27.5 55Z" fill="#926E43"/>
<path d="M10.3341 8.56927L37.7767 22.3473L44.4364 19.0428L44.666 18.9308L17.2234 5.15277L13.7787 6.88902L10.3341 8.56927Z" fill="#F2D3BA"/>
</svg>
