<svg width="50" height="50" viewBox="0 0 50 50" fill="none" xmlns="http://www.w3.org/2000/svg">
<g clip-path="url(#clip0)">
<path d="M23.5351 0.0419084C17.8674 0.367201 12.5557 2.57697 8.32813 6.36955C7.98565 6.67677 8.62676 7.97101 8.29893 8.29894C7.93301 8.66486 6.60322 8.06359 6.26299 8.44767C2.53555 12.6556 0.364163 17.9206 0.0418977 23.5351C0.0140657 24.0209 0.976565 24.5094 0.976565 25C0.976565 25.4906 0.0140657 25.9791 0.0418977 26.465C0.365628 32.1061 2.55625 37.3945 6.31621 41.6123C6.64004 41.9755 7.6335 42.4316 7.6335 42.4316C7.6335 42.4316 8.02471 43.3602 8.38809 43.684C12.6059 47.4438 17.8941 49.6342 23.5351 49.9579C24.0209 49.9859 25 49.3887 25 49.3887L25.9767 25.9414L25.0168 0.44601C25.0168 0.44601 24.0209 0.0140764 23.5351 0.0419084V0.0419084Z" fill="#FDCB02"/>
<path d="M25.0001 0.956578V43.9202C25.0001 43.9202 25.9791 49.9861 26.4649 49.9581C32.1264 49.6332 37.4326 47.428 41.6579 43.6431C42.0053 43.332 41.3687 42.0335 41.7012 41.7012C42.0627 41.3397 43.3883 41.9457 43.7246 41.5665C47.4596 37.3563 49.6355 32.0858 49.9581 26.4651C49.9859 25.9791 48.0469 25.4907 48.0469 25C48.0469 24.5094 49.9859 24.0209 49.9581 23.5351C49.6344 17.894 47.4438 12.6055 43.6838 8.38773C43.3601 8.02455 42.2118 7.76371 42.2118 7.76371C42.2118 7.76371 41.9754 6.63988 41.612 6.31595C37.3941 2.55638 32.1058 0.367028 26.4648 0.0433949C26.0312 0.0184925 25.0001 0.956578 25.0001 0.956578V0.956578Z" fill="#FDAE02"/>
<path d="M14.2507 12.1791L8.329 6.37051C7.98642 6.67774 7.65029 6.99444 7.32236 7.32237C6.95634 7.68839 6.60468 8.06475 6.26445 8.44893L12.1792 14.2507L14.2507 12.1791Z" fill="#FDAE02"/>
<path d="M23.5352 41.6667V49.9564C24.0211 49.9844 24.5093 50.0001 25 50.0001H25.0001L25.9767 46.7058L25.0001 41.6667H23.5352Z" fill="#FDAE02"/>
<path d="M26.4648 41.6667H25.0001V50C25.4907 50 25.9789 49.9843 26.4648 49.9563V41.6667Z" fill="#FD8C02"/>
<path d="M23.5352 0.0436523V8.3334H25.0001L25.9767 3.60859L25.0001 0C25.0001 0 24.0211 0.0157227 23.5352 0.0436523V0.0436523Z" fill="#FDAE02"/>
<path d="M26.4648 0.0436523C25.9789 0.0157227 25.4907 0 25.0001 0V8.3334H26.4648V0.0436523Z" fill="#FD8C02"/>
<path d="M35.7493 37.8209L41.6569 43.642C42.0044 43.3308 42.3453 43.0101 42.6777 42.6777C43.0393 42.3161 43.3868 41.9444 43.7233 41.5652L37.821 35.7493L35.7493 37.8209Z" fill="#FD8C02"/>
<path d="M41.6667 26.4648H49.9563C49.9843 25.9789 50 25.4907 50 25C50 24.5093 49.9843 24.0211 49.9563 23.5352H41.6667V26.4648Z" fill="#FD8C02"/>
<path d="M8.3334 23.5352H0.0436523C0.0157227 24.0211 0 24.5093 0 25C0 25.4907 0.0157227 25.9789 0.0436523 26.4648H8.3334V23.5352Z" fill="#FDAE02"/>
<path d="M37.8209 14.2507L43.6825 8.38897C43.3587 8.02569 43.0246 7.66934 42.6775 7.32227C42.3306 6.9753 41.9742 6.64122 41.6108 6.31729L35.7492 12.1789L37.8209 14.2507Z" fill="#FD8C02"/>
<path d="M12.1791 35.7493L6.31738 41.611C6.64121 41.9743 6.97529 42.3307 7.32236 42.6777C7.66934 43.0247 8.02568 43.3588 8.38906 43.6827L14.2508 37.821L12.1791 35.7493Z" fill="#FDAE02"/>
<path d="M25 6.86945C15.0023 6.86945 6.86856 15.0031 6.86856 25.0009C6.86856 34.9986 15.0023 43.1324 25 43.1324H25.0001L25.9767 25.8502L25.0001 6.86945H25Z" fill="#FFDF8E"/>
<path d="M43.1315 25C43.1315 15.0022 34.9977 6.86854 25.0001 6.86844V43.1314C34.9977 43.1314 43.1315 34.9977 43.1315 25V25Z" fill="#FFD664"/>
<path d="M23.5353 14.5201V18.6868H25.0001L25.9767 16.7363L25.0001 14.5201H23.5353Z" fill="#FDAE02"/>
<path d="M25.0001 14.5201H26.465V18.6868H25.0001V14.5201Z" fill="#FD8C02"/>
<path d="M21.3312 35.4799L21.7959 21.81C20.184 20.1862 17.6611 19.8249 15.6277 21.0186C13.3234 22.3711 12.4602 25.2997 13.6625 27.6859L17.59 35.4799H21.3312Z" fill="#FDAE02"/>
<path d="M34.3725 21.0186C32.3389 19.825 29.816 20.1863 28.2043 21.8099L28.7751 35.4798H32.4101L36.3376 27.6858C37.5399 25.2997 36.6768 22.3711 34.3725 21.0186V21.0186Z" fill="#FD8C02"/>
<path d="M21.3312 35.4799H25.0316L25.9766 26.5643L25 17.222C23.2708 17.222 21.6417 17.9817 20.5304 19.3065C19.4191 20.6312 18.9541 22.3677 19.2561 24.078L21.3312 35.4799Z" fill="#FDCB02"/>
<path d="M28.7751 35.4799L30.7453 24.0704C31.0459 22.3676 30.581 20.6311 29.4695 19.3064C28.3582 17.9817 26.7292 17.222 25 17.222V35.48H28.7751V35.4799Z" fill="#FDAE02"/>
</g>
<defs>
<clipPath id="clip0">
<rect width="50" height="50" fill="white"/>
</clipPath>
</defs>
</svg>
