<svg width="50" height="50" viewBox="0 0 50 50" fill="none" xmlns="http://www.w3.org/2000/svg">
<g clip-path="url(#clip0)">
<path d="M36.3538 36.7983C35.6159 40.7209 34.878 43.3266 34.878 43.3266L33.6726 48.4793C31.6426 48.4793 31.9839 45.0626 29.4323 45.0693H29.4312C29.1383 45.1403 28.8453 45.2067 28.5514 45.2687C26.8672 46.0877 26.4955 49.1553 22.689 49.1553C18.4228 49.1553 18.7855 46.2478 16.0503 45.8399C15.9985 45.8332 15.9467 45.8265 15.8949 45.8196C15.8633 45.8162 15.8318 45.8129 15.7991 45.8095C12.7856 45.547 11.0305 48.9862 8.15784 48.1414C7.00881 47.8034 6.46916 46.9653 6.23488 46.0821C5.89689 44.8035 6.22023 43.4404 7.03918 42.4029C12.3012 35.7463 11.7154 21.2299 12.4589 11.9394C12.6527 9.52193 13.35 7.60796 14.2884 6.09614C17.1453 1.49866 22.9063 -0.302716 27.9791 1.58762C28.6156 1.82532 29.2138 2.10354 29.7759 2.42015C29.7771 2.42015 29.7771 2.42015 29.7771 2.42015C40.113 8.23296 38.2328 26.7982 36.3538 36.7983Z" fill="#E6E6E6"/>
<path d="M29.7771 2.42014C29.7771 2.42014 29.7771 2.42014 29.7759 2.42014C29.2138 2.10364 28.6155 1.82532 27.9791 1.58762C26.2413 0.940059 24.4227 0.726093 22.6678 0.909004C23.6405 1.01027 24.6125 1.2343 25.5604 1.58762C26.197 1.82532 26.7951 2.10354 27.3572 2.42014C27.3584 2.42014 27.3584 2.42014 27.3584 2.42014C37.6943 8.23306 35.8141 26.7982 33.9351 36.7983C33.1972 40.7209 32.4593 43.3266 32.4593 43.3266L31.6807 46.6552C32.1979 47.5455 32.6113 48.4792 33.6726 48.4792L34.878 43.3265C34.878 43.3265 35.6158 40.7208 36.3537 36.7982C38.2327 26.7982 40.1129 8.23296 29.7771 2.42014Z" fill="#F2F2F2"/>
<path d="M29.776 2.42012C29.66 2.39981 19.9747 1.91055 18.4651 8.45237C16.9454 15.0415 20.3954 37.098 16.0503 45.8398C15.9985 45.8331 15.9467 45.8263 15.8949 45.8195C15.8633 45.8161 15.8318 45.8128 15.7991 45.8094C12.7856 45.5469 11.0305 48.9861 8.15783 48.1413C7.00881 47.8033 6.46916 46.9652 6.23488 46.082C5.89689 44.8034 6.22023 43.4403 7.03918 42.4028C12.3012 35.7461 11.7154 21.2298 12.4589 11.9393C12.6527 9.52181 13.35 7.60783 14.2884 6.09601C17.1454 1.49863 22.9063 -0.302745 27.9791 1.5876C28.6156 1.82529 29.2138 2.10352 29.776 2.42012Z" fill="#CCCCCC"/>
<path d="M34.6575 17.504C34.6575 14.891 32.5394 15.1384 29.9264 15.1384C27.3134 15.1384 25.1952 14.891 25.1952 17.504C25.1952 20.117 27.3134 22.2352 29.9264 22.2352C32.5394 22.2352 34.6575 20.1169 34.6575 17.504Z" fill="#4D4D4D"/>
<path d="M33.6591 20.4107C32.794 21.5215 31.4444 22.2357 29.927 22.2357C28.4096 22.2357 27.0588 21.5215 26.1937 20.4107C27.0577 19.2988 28.4084 18.5846 29.927 18.5846C31.4444 18.5846 32.7951 19.2988 33.6591 20.4107Z" fill="#F4516D"/>
<path d="M19.5584 20.9728L18.1277 29.9073C18.1637 28.9622 16.9122 27.5574 15.3339 25.9284C12.3869 22.8856 8.29991 19.0611 9.34083 15.9902C9.82072 14.5719 10.9371 14.457 12.2619 14.991C15.3429 16.2302 19.5584 20.9728 19.5584 20.9728Z" fill="#E6E6E6"/>
<path d="M15.3339 25.9284C12.3869 22.8856 8.29985 19.0611 9.34077 15.9902C9.82066 14.5719 10.9371 14.457 12.2619 14.991C12.2619 14.991 9.42974 18.8336 15.3339 25.9284Z" fill="#CCCCCC"/>
<path d="M35.9507 38.8412C35.4947 38.7413 35.0445 39.0296 34.9443 39.4853C34.4575 41.703 34.0689 43.0829 34.0649 43.0965C34.0614 43.1089 34.0581 43.1215 34.0552 43.1341L33.0789 47.3074C32.9341 47.1302 32.7751 46.8702 32.5666 46.5021C32.0216 45.5405 31.2758 44.2243 29.4412 44.2243C29.3723 44.2246 29.2935 44.2336 29.226 44.2497C28.2006 44.4944 27.2804 45.0808 26.6352 45.9001C26.5623 45.9925 26.4893 46.087 26.4152 46.1826C25.5688 47.2769 24.7695 48.3103 22.6887 48.3103C20.5978 48.3103 19.8868 47.5716 19.0634 46.7162C18.3884 46.0149 17.6233 45.2201 16.1745 45.0041C16.1694 45.0033 16.1643 45.0026 16.1593 45.0019L16.0038 44.9816C15.9972 44.9809 15.9905 44.98 15.9839 44.9793L15.8849 44.9688C15.8805 44.9684 15.8763 44.9681 15.872 44.9676C14.1647 44.8188 12.8379 45.638 11.6666 46.3606C10.3519 47.1718 9.49058 47.6526 8.39595 47.3306C7.68853 47.1225 7.26118 46.6569 7.05132 45.866C6.78891 44.8736 7.03227 43.7746 7.70161 42.9266C11.0623 38.6755 12.1195 31.6114 12.6211 24.3471C13.0846 24.8359 13.5558 25.3175 14.0178 25.7897C15.4072 27.2097 17.3101 29.1546 17.2824 29.8749C17.2645 30.3412 17.628 30.7337 18.0944 30.7516C18.1055 30.7519 18.1164 30.7522 18.1273 30.7522C18.579 30.7522 18.9535 30.395 18.971 29.9396C19.0265 28.4927 17.4321 26.8631 15.2257 24.6079C12.6071 21.9315 9.3481 18.6006 10.1405 16.2614C10.3495 15.6442 10.6373 15.5858 10.7601 15.5609C12.4271 15.2227 16.5393 18.85 18.9265 21.534C19.2365 21.8826 19.7707 21.914 20.1192 21.6039C20.4679 21.2938 20.4994 20.76 20.1895 20.4112C20.1261 20.3398 18.6144 18.6447 16.716 16.9947C15.3608 15.8168 14.1727 14.9749 13.1372 14.4606C13.1926 13.484 13.2443 12.7104 13.301 12.0067C13.467 9.9356 14.0406 8.09682 15.0058 6.54183C15.962 5.00316 17.3192 3.74329 18.9306 2.89885C19.3438 2.68225 19.5033 2.1716 19.2868 1.75822C19.0702 1.34494 18.5593 1.18547 18.1462 1.40217C16.2681 2.38654 14.6858 3.8554 13.5705 5.65033C12.4618 7.43656 11.8044 9.52974 11.6167 11.8714C11.5683 12.4711 11.5237 13.119 11.4775 13.8941C11.0992 13.8355 10.7486 13.8391 10.4248 13.9049C9.8027 14.0309 8.97086 14.448 8.54019 15.7192C7.7811 17.9602 9.13082 20.3211 11.0397 22.5915C10.6159 29.8018 9.71031 37.6612 6.37583 41.8792C5.37856 43.1426 5.02035 44.7944 5.41801 46.2985C5.77905 47.6592 6.64389 48.5766 7.91919 48.9518C9.79254 49.5027 11.2595 48.5974 12.554 47.7987C13.592 47.1583 14.5717 46.5532 15.7186 46.6504L15.9326 46.6764C16.8075 46.8089 17.2434 47.2617 17.846 47.8878C18.7518 48.8288 19.8788 49.9998 22.6887 49.9998C25.5987 49.9998 26.843 48.391 27.7516 47.2163C27.8222 47.1248 27.892 47.0346 27.9621 46.9458C28.3545 46.4476 28.9079 46.0844 29.5284 45.9159C30.2764 45.951 30.587 46.4366 31.0961 47.335C31.5717 48.1743 32.2232 49.3238 33.6721 49.3238C34.0646 49.3238 34.4054 49.0536 34.4948 48.6714L35.6959 43.5369C35.7472 43.3538 36.1215 42.0017 36.5944 39.8472C36.695 39.3917 36.4066 38.9412 35.9507 38.8412Z" fill="black"/>
<path d="M24.3503 17.504C24.3503 20.5786 26.8518 23.0801 29.9264 23.0801C33.001 23.0801 35.5025 20.5786 35.5025 17.504C35.5025 16.5 35.2384 15.75 34.6954 15.2112C33.7421 14.2654 32.2607 14.2766 30.5454 14.2904C30.1403 14.2935 29.7123 14.2935 29.3073 14.2904C27.5923 14.2767 26.1107 14.2655 25.1574 15.2112C24.6143 15.75 24.3503 16.5 24.3503 17.504ZM27.3481 20.4085C28.0522 19.7803 28.9603 19.4296 29.9268 19.4296C30.8929 19.4296 31.8006 19.7803 32.5045 20.4087C31.8179 21.0188 30.9149 21.3904 29.9263 21.3904C28.9377 21.3902 28.0347 21.0186 27.3481 20.4085ZM26.3476 16.4106C26.7348 16.0263 27.6736 15.977 28.7375 15.977C28.92 15.977 29.1064 15.9785 29.2941 15.9799C29.7078 15.9831 30.1448 15.9831 30.5586 15.9799C31.8403 15.9699 33.0515 15.9606 33.5051 16.4106C33.5812 16.4861 33.8126 16.7157 33.8126 17.5039C33.8126 18.0469 33.7003 18.5641 33.4982 19.034C32.507 18.2022 31.2554 17.7395 29.9269 17.7395C28.5978 17.7395 27.3459 18.2022 26.3546 19.034C26.1525 18.5641 26.0401 18.047 26.0401 17.5039C26.04 16.7158 26.2716 16.4861 26.3476 16.4106Z" fill="black"/>
<path d="M27.7739 9.7772C27.2319 9.302 26.5374 9.06684 25.8183 9.11372C25.0991 9.16088 24.4414 9.4855 23.9664 10.0273C23.4914 10.5691 23.2557 11.2636 23.3029 11.9829C23.3323 12.4296 23.7039 12.7724 24.1452 12.7724C24.1638 12.7724 24.1826 12.7718 24.2015 12.7707C24.6671 12.74 25.0198 12.3379 24.9892 11.8721C24.9715 11.6034 25.0596 11.3439 25.2371 11.1414C25.4147 10.9388 25.6605 10.8176 25.9292 10.8C26.1982 10.7824 26.4576 10.8704 26.66 11.0479C26.8625 11.2254 26.9837 11.4712 27.0014 11.74C27.032 12.2056 27.4348 12.5583 27.8999 12.5277C28.3656 12.497 28.7182 12.0948 28.6876 11.6292C28.6402 10.9099 28.3158 10.2523 27.7739 9.7772Z" fill="black"/>
<path d="M44.526 15.7192C44.1285 14.5453 43.3839 14.1095 42.8293 13.9507C41.6665 13.6178 40.143 14.1341 38.1955 15.5258C37.0177 7.76611 33.6849 2.81248 28.2741 0.795971C25.9924 -0.0543257 23.5389 -0.227276 21.1791 0.295773C20.7235 0.39675 20.436 0.847924 20.5371 1.30349C20.6381 1.75906 21.089 2.04656 21.5448 1.94549C23.5855 1.49314 25.7086 1.64314 27.6842 2.37947C30.7471 3.52098 33.0648 5.77568 34.6215 9.10977C34.5307 9.10665 34.4394 9.10782 34.3476 9.11397C33.6284 9.16114 32.9707 9.48575 32.4957 10.0276C32.0207 10.5693 31.785 11.2639 31.8322 11.9831C31.8616 12.4299 32.2331 12.7727 32.6745 12.7727C32.6931 12.7727 32.7119 12.7721 32.7308 12.7709C33.1964 12.7403 33.549 12.3381 33.5185 11.8724C33.5008 11.6036 33.5889 11.3442 33.7664 11.1416C33.944 10.9391 34.1898 10.8179 34.4585 10.8002C34.7272 10.7826 34.9867 10.8706 35.1893 11.0482C35.3918 11.2257 35.513 11.4715 35.5307 11.7403C35.545 11.9583 35.6415 12.151 35.7872 12.2917C36.1934 13.7387 36.4974 15.3284 36.6976 17.0602C37.4865 23.8831 36.4947 31.4751 35.5237 36.6426C35.4375 37.1012 35.7394 37.5428 36.198 37.629C36.2507 37.639 36.3032 37.6437 36.355 37.6437C36.7535 37.6437 37.1082 37.3605 37.1845 36.9547C37.7404 33.9968 38.3021 30.2577 38.5463 26.3051C38.7125 26.1343 38.8807 25.962 39.0519 25.787C42.145 22.6242 45.6511 19.04 44.526 15.7192ZM38.4394 17.4579C39.4054 16.7027 41.3826 15.294 42.364 15.5752C42.4637 15.6037 42.7286 15.6796 42.9255 16.2614C43.6375 18.3627 41.0798 21.2643 38.6547 23.7725C38.7046 21.666 38.6486 19.534 38.4394 17.4579Z" fill="black"/>
</g>
<defs>
<clipPath id="clip0">
<rect width="50" height="50" fill="white"/>
</clipPath>
</defs>
</svg>
