<svg width="50" height="50" viewBox="0 0 50 50" fill="none" xmlns="http://www.w3.org/2000/svg">
<path d="M13.0204 14.9621C10.0342 17.0234 5.87653 14.1589 5.87653 18.5714V22L2.93827 20.2858L0 22V17.7143C0 12.5715 4.89712 10.8572 7.83538 10.8572C9.51871 10.8782 11.1879 10.5861 12.7325 10L13.0204 14.9621Z" fill="#C03A2B"/>
<path d="M13.4231 16H12.4347C10.797 16 9.46936 17.1193 9.46936 18.5C9.46936 19.8807 10.797 21 12.4347 21H14.2041L13.4231 16Z" fill="#F9C795"/>
<path d="M45.1123 20.6896H46.9388C48.6295 20.6896 50 19.5317 50 18.1034C50 16.6751 48.6295 15.5172 46.9388 15.5172H45.9184L45.1123 20.6896Z" fill="#F9C795"/>
<path d="M18.9388 37.7486L18.3624 38.4857C17.9 39.2194 17.0447 39.7503 16.0325 39.932C15.0204 40.1137 13.9584 39.9269 13.1397 39.4232C11.8365 38.5818 11.461 37.1337 12.2404 35.9557L12.84 35L18.9388 37.7486Z" fill="#FDD7AD"/>
<path d="M21.1353 38V33.8334L18.3136 37.6083L13.0204 35.0917L14.7914 32.1417C16.3162 29.6007 19.4357 27.9968 22.8464 28H26.1385C26.1385 28 27.1391 30.5 29.1403 31.3334C31.5792 32.9623 33.0414 35.3977 33.1428 38H21.1353Z" fill="#35495E"/>
<path d="M46.1632 35.0917L40.7217 37.6083L37.821 33.8334V38H33.7064C33.6021 35.3977 32.099 32.9623 29.5918 31.3334C31.649 30.5 32.6777 28 32.6777 28H36.062C39.5682 27.9968 42.775 29.6007 44.3426 32.1417L46.1632 35.0917Z" fill="#2C3E50"/>
<path d="M40.2443 47H31.7328C31.724 46.9707 31.7203 46.9403 31.7221 46.91C31.811 45.1996 31.3076 43.5044 30.2733 42.032C29.8153 41.4561 29.3465 41.4561 28.9098 42.032C27.8649 43.5336 27.3613 45.2602 27.461 47H18.9388V46.8471C18.9371 44.2715 19.572 41.7242 20.8031 39.3681C20.9819 39.025 21.0726 38.6539 21.0694 38.2791V38H38.1138V38.2791C38.1093 38.651 38.2001 39.0195 38.3801 39.3591C39.6325 41.7664 40.2677 44.3705 40.2443 47Z" fill="#3F5C6C"/>
<path d="M27.2245 47C27.2231 47.9049 26.6574 48.761 25.6849 49.3305C24.7122 49.9 23.4363 50.1221 22.2117 49.9351C20.3157 49.6186 18.9643 48.4066 18.9388 47H27.2245Z" fill="#2C3E50"/>
<path d="M40.2449 47C40.2442 47.8573 39.7371 48.6734 38.8514 49.2426C37.9657 49.8119 36.7858 50.0799 35.6095 49.9792C33.5433 49.7742 31.9931 48.5089 31.9592 47H40.2449Z" fill="#2C3E50"/>
<path d="M45.7653 39.1035C45.0419 39.5811 44.103 39.7594 43.2075 39.589C42.3118 39.4186 41.554 38.9176 41.1428 38.2242L40.6326 37.5259L46.0305 34.9224L46.5612 35.8276C47.252 36.9405 46.9191 38.3105 45.7653 39.1035Z" fill="#FDD7AD"/>
<path d="M13.0249 15.75V9.625C13.0249 6.125 15.0958 0 29.5918 0C44.0879 0 46.1587 6.125 46.1587 9.625V15.75C46.2026 17.5249 45.9268 19.2952 45.3408 21C43.1871 26.9413 36.9537 28 29.5918 28C22.2299 28 15.9966 26.9413 13.8429 21C13.2569 19.2952 12.9812 17.5249 13.0249 15.75Z" fill="#35495E"/>
<path d="M41.4269 17.0789C41.4269 19.5742 40.6478 23 36.3477 23C31.5248 23 32.4914 21.3083 29.5918 21.3083C26.6922 21.3083 27.6587 23 22.8359 23C18.5358 23 17.7567 19.5742 17.7567 17.0789C17.7352 15.8626 17.928 14.6506 18.3287 13.4838C21.96 12.453 25.7673 11.9526 29.5918 12.0035C33.4163 11.9526 37.2236 12.453 40.8549 13.4838C41.2555 14.6506 41.4484 15.8626 41.4269 17.0789Z" fill="#FDD7AD"/>
<path d="M22.4898 21C24.4511 21 26.0408 19.8807 26.0408 18.5C26.0408 17.1193 24.4511 16 22.4898 16C20.5287 16 18.9388 17.1193 18.9388 18.5C18.9388 19.8807 20.5287 21 22.4898 21Z" fill="#ECF0F1"/>
<path d="M36.6938 21C38.655 21 40.2449 19.8807 40.2449 18.5C40.2449 17.1193 38.655 16 36.6938 16C34.7327 16 33.1428 17.1193 33.1428 18.5C33.1428 19.8807 34.7327 21 36.6938 21Z" fill="#ECF0F1"/>
<path d="M33.1428 28C33.1428 28 31.9592 30.25 29.5918 31C27.2245 30.25 26.0408 28 26.0408 28H33.1428Z" fill="#FDD7AD"/>
<path d="M46.1632 10.6V16C46.1632 16 40.9847 12.4001 29.5918 12.4001C18.199 12.4001 13.0204 16 13.0204 16V10.6C13.0204 10.6 18.199 7 29.5918 7C40.9847 7 46.1632 10.6 46.1632 10.6Z" fill="#E64C3C"/>
<path d="M23.0816 19C24.0621 19 24.8571 18.5523 24.8571 18C24.8571 17.4477 24.0621 17 23.0816 17C22.101 17 21.3061 17.4477 21.3061 18C21.3061 18.5523 22.101 19 23.0816 19Z" fill="#35495E"/>
<path d="M36.2246 19.3965C37.0698 19.3965 37.7552 18.8176 37.7552 18.1034C37.7552 17.3892 37.0698 16.8103 36.2246 16.8103C35.3792 16.8103 34.694 17.3892 34.694 18.1034C34.694 18.8176 35.3792 19.3965 36.2246 19.3965Z" fill="#35495E"/>
</svg>
