<svg width="50" height="44" viewBox="0 0 50 44" fill="none" xmlns="http://www.w3.org/2000/svg">
<path d="M33.3333 29.3226L25 24.4207L33.3333 19.5633L41.6667 14.6613L50 19.5633L41.6667 24.4207L33.3333 29.3226Z" fill="#D9AC80"/>
<path d="M24.9109 24.3761V43.4938L41.4438 33.9127V24.5544L33.3333 29.3227L25 24.4207L24.9109 24.3761Z" fill="#A67E4F"/>
<path d="M16.6667 29.3226L25 24.4207L16.6667 19.5633L8.33333 14.6613L0 19.5633L8.33333 24.4207L16.6667 29.3226Z" fill="#D9AC80"/>
<path d="M25 4.85739L33.3333 9.75935L41.6667 14.6613L33.3333 19.5633L25 24.4207L16.6667 19.5633L8.33333 14.6613L16.6667 9.75935L25 4.85739Z" fill="#643513"/>
<path d="M16.6667 0L25 4.8574L16.6667 9.75936L8.33333 14.6613L0 9.75936L8.33333 4.8574L16.6667 0Z" fill="#D9AC80"/>
<path d="M33.3333 0L25 4.8574L33.3333 9.75936L41.6667 14.6613L50 9.75936L41.6667 4.8574L33.3333 0Z" fill="#D9AC80"/>
<path d="M24.9109 24.5098V43.4938L8.33333 33.9127V24.4207L16.6667 29.3226L24.9109 24.5098Z" fill="#926E43"/>
<path d="M16.6667 9.75935L8.33333 14.6613L16.6667 19.5633L19.3405 21.123L25 17.8253V4.85739L16.6667 9.75935Z" fill="#8D5122"/>
<path d="M25 4.85739V17.8253L30.6595 21.123L33.3333 19.5633L41.6667 14.6613L33.3333 9.75935L25 4.85739Z" fill="#77411B"/>
</svg>
