<svg width="28" height="28" viewBox="0 0 28 28" fill="none" xmlns="http://www.w3.org/2000/svg">
<g clip-path="url(#clip0)">
<path d="M10.2083 20.5473V25.9583C10.2083 26.3363 10.4509 26.6712 10.8103 26.7901C10.9001 26.8193 10.9923 26.8333 11.0833 26.8333C11.3563 26.8333 11.6199 26.705 11.7879 26.4763L14.9531 22.169L10.2083 20.5473Z" fill="#3369FF"/>
<path d="M27.6321 0.1614C27.3637 -0.0287664 27.0114 -0.054433 26.7197 0.0984003L0.469731 13.8067C0.159397 13.9689 -0.0237697 14.3002 0.00189694 14.6491C0.0287303 14.9991 0.260897 15.2977 0.591064 15.4109L7.88857 17.9052L23.4297 4.6169L11.4037 19.1057L23.6339 23.2859C23.7249 23.3162 23.8206 23.3326 23.9162 23.3326C24.0749 23.3326 24.2324 23.2894 24.3712 23.2054C24.5929 23.0701 24.7434 22.8426 24.7819 22.5871L27.9902 1.00373C28.0381 0.677067 27.9004 0.352734 27.6321 0.1614Z" fill="#3369FF"/>
</g>
<defs>
<clipPath id="clip0">
<rect width="28" height="28" fill="white"/>
</clipPath>
</defs>
</svg>
